<svg height="24" viewBox="0 0 24 24" width="24" xmlns="http://www.w3.org/2000/svg">
  <title>attachment</title>
  <path d="M17.84,1a3.91,3.91,0,0,1,2.72,6.72L12.1,16.19A2.27,2.27,0,1,1,8.88,13l4.41-4.41L14,9.3l-3.16,3.16h0L9.44,13.88h0a1.26,1.26,0,1,0,2,1.57L19.8,7.07a3,3,0,0,0,.94-2.16,2.9,2.9,0,0,0-4.92-2.08h0L4.29,14.35h0A4.46,4.46,0,0,0,3,17.5,4.51,4.51,0,0,0,7.5,22c.65,0,1.84,0,3.52-1.67L21.29,10.06l.71.71L11.52,21.25A5.5,5.5,0,1,1,3.73,13.5L15,2.2A3.86,3.86,0,0,1,17.84,1Z" fill-rule="evenodd"/>
</svg>
