<svg xmlns="http://www.w3.org/2000/svg" width="24" height="24" viewBox="0 0 24 24">
  <path d="M21.19,7H24V22H3V17H.19V2h21ZM23,8H4V21H23ZM13.5,9A5.5,5.5,0,1,1,8,14.5,5.5,5.5,0,0,1,13.5,9Zm0,1A4.5,4.5,0,1,1,9,14.5,4.51,4.51,0,0,1,13.5,10Zm.5,8H13v-.8a1.7,1.7,0,0,1-1.48-1.71h1c0,.59.33.89,1,.89.82,0,1.33-.92-.17-1.44-.76-.27-1.68-.68-1.68-1.69A1.49,1.49,0,0,1,13,11.8V11h1v.81a1.57,1.57,0,0,1,1.31,1.59h-1a.74.74,0,0,0-.81-.77c-.55,0-.79.29-.79.62s.14.5,1,.77c1.06.34,1.66.84,1.66,1.74A1.42,1.42,0,0,1,14,17.21ZM20.19,7V3h-19V16H3V7Z" fill-rule="evenodd"/></svg>
