<svg width="24" height="24" viewBox="0 0 24 24" fill="none" xmlns="http://www.w3.org/2000/svg">
<path fill-rule="evenodd" clip-rule="evenodd" d="M23 9.5V5L12 0.5L10.57 1L1 5V9.5H3V19.58C2.46957 19.58 1.96086 19.7907 1.58579 20.1658C1.21071 20.5409 1 21.0496 1 21.58V23.5H23V21.58C23 21.0496 22.7893 20.5409 22.4142 20.1658C22.0391 19.7907 21.5304 19.58 21 19.58V9.5H23ZM22 21.58V22.5H2V21.58C2 21.3148 2.10536 21.0604 2.29289 20.8729C2.48043 20.6854 2.73478 20.58 3 20.58H21C21.2652 20.58 21.5196 20.6854 21.7071 20.8729C21.8946 21.0604 22 21.3148 22 21.58ZM4 19.58V9.5H6V19.58H4ZM7 19.58V9.5H10V19.58H7ZM11 19.58V9.5H13V19.58H11ZM14 19.58V9.5H17V19.58H14ZM18 19.58V9.5H20V19.58H18ZM2 8.5V5.68L12 1.57L22 5.68V8.5H2ZM12 3.42C11.6044 3.42 11.2178 3.5373 10.8889 3.75706C10.56 3.97682 10.3036 4.28918 10.1522 4.65463C10.0009 5.02009 9.96126 5.42222 10.0384 5.81018C10.1156 6.19814 10.3061 6.55451 10.5858 6.83421C10.8655 7.11392 11.2219 7.3044 11.6098 7.38157C11.9978 7.45874 12.3999 7.41913 12.7654 7.26776C13.1308 7.11638 13.4432 6.86004 13.6629 6.53114C13.8827 6.20224 14 5.81556 14 5.42C14 4.88957 13.7893 4.38086 13.4142 4.00579C13.0391 3.63071 12.5304 3.42 12 3.42ZM12 6.42C11.8022 6.42 11.6089 6.36135 11.4444 6.25147C11.28 6.14159 11.1518 5.98541 11.0761 5.80268C11.0004 5.61996 10.9806 5.41889 11.0192 5.22491C11.0578 5.03093 11.153 4.85275 11.2929 4.71289C11.4327 4.57304 11.6109 4.4778 11.8049 4.43921C11.9989 4.40063 12.2 4.42043 12.3827 4.49612C12.5654 4.57181 12.7216 4.69998 12.8315 4.86443C12.9414 5.02888 13 5.22222 13 5.42C13 5.68522 12.8946 5.93957 12.7071 6.12711C12.5196 6.31464 12.2652 6.42 12 6.42Z"/>
</svg>
