<svg height="24" viewBox="0 0 24 24" width="24" xmlns="http://www.w3.org/2000/svg">
  <title>bell</title>
  <path d="M1,20V17.05C3,16.4,3.58,14.9,4.67,11c.9-3.22,1.89-6.79,4.87-8a2.22,2.22,0,0,1,0-.45,2.5,2.5,0,0,1,5,0,2.32,2.32,0,0,1,0,.46c3,1.24,4,4.81,4.88,8,1.1,3.95,1.7,5.42,3.66,6.06V20H16a4,4,0,0,1-8,0Zm14,0H9a3,3,0,0,0,6,0ZM2,19H22V17.76c-2.06-.92-2.82-3.63-3.62-6.5C17.31,7.45,16.21,3.5,12,3.5S6.69,7.44,5.63,11.24c-.8,2.88-1.56,5.6-3.63,6.52ZM13.49,2.65V2.5a1.5,1.5,0,0,0-3,0v.15A6.87,6.87,0,0,1,12,2.5,7,7,0,0,1,13.49,2.65Z" fill-rule="evenodd"/>
</svg>
