<svg xmlns="http://www.w3.org/2000/svg" width="24" height="24" viewBox="0 0 24 24"><path  d="M20,15a1,1,0,1,1-1-1A1,1,0,0,1,20,15Zm-3,0a1,1,0,1,1-1-1A1,1,0,0,1,17,15Zm-3,0a1,1,0,1,1-1-1A1,1,0,0,1,14,15ZM19.42,20a12.75,12.75,0,0,1-3.33.48C12.63,20.43,9,18.36,9,15c0-3.13,3.14-5.68,7-5.68s7,2.55,7,5.68a5.07,5.07,0,0,1-1.48,3.52l.84,2.69ZM6,16.57l-4.39,1.9,1.26-4A6.82,6.82,0,0,1,1,9.76C1,5.48,5.26,2,10.5,2c5,0,9.13,3.19,9.47,7.22a9.35,9.35,0,0,0-4-.89c-4.2,0-8,2.8-8,6.68a5.42,5.42,0,0,0,.41,2A17.1,17.1,0,0,1,6,16.57ZM24,15A6.25,6.25,0,0,0,21,9.8v0C21,4.67,16,1,10.5,1S0,4.7,0,9.76a7.75,7.75,0,0,0,1.79,4.92L.05,20.25l6.07-2.63A17,17,0,0,0,9,18.11a8.35,8.35,0,0,0,7.11,3.32A13.08,13.08,0,0,0,19.33,21L24,23l-1.32-4.25A5.87,5.87,0,0,0,24,15Z" fill-rule="evenodd"/></svg>