<svg height="24" viewBox="0 0 24 24" width="24" xmlns="http://www.w3.org/2000/svg">
  <title>bulb</title>
  <path d="M13,24H11a1,1,0,0,1-.75-.34L9.67,23h4.66l-.58.66A1,1,0,0,1,13,24Zm1.87-3a.5.5,0,1,1,0,1H9.13a.5.5,0,1,1,0-1ZM12,4c3,0,6,2,6,5.73A10.74,10.74,0,0,1,16.09,15a10.41,10.41,0,0,0-1.84,5h1c0-3.29,3.75-6.1,3.75-10.27C19,5.39,15.5,3,12,3S5,5.39,5,9.73c0,4.17,3.75,7,3.75,10.27h1a10.41,10.41,0,0,0-1.84-5A10.74,10.74,0,0,1,6,9.73C6,6,9,4,12,4Zm9.42,8a.49.49,0,0,1,.25.66.5.5,0,0,1-.66.25l-.91-.42a.5.5,0,0,1-.25-.66.49.49,0,0,1,.66-.24ZM2.58,12a.49.49,0,0,0-.25.66.5.5,0,0,0,.66.25l.91-.42a.5.5,0,0,0,.25-.66.49.49,0,0,0-.66-.24ZM21.5,9h-1a.5.5,0,0,1,0-1h1a.5.5,0,0,1,0,1ZM3.5,8a.5.5,0,0,1,0,1h-1a.5.5,0,0,1,0-1ZM20.32,4.91a.5.5,0,0,0-.57-.82l-.82.57a.5.5,0,0,0-.13.7.51.51,0,0,0,.7.12Zm-16.64,0a.5.5,0,0,1,.57-.82l.82.57a.5.5,0,0,1,.13.7.51.51,0,0,1-.7.12ZM17,1.88a.5.5,0,0,0-.87-.49l-.49.87a.51.51,0,0,0,.2.68.5.5,0,0,0,.68-.19Zm-10,0a.5.5,0,0,1,.87-.49l.49.87a.51.51,0,0,1-.2.68.5.5,0,0,1-.68-.19ZM12.5.5a.5.5,0,0,0-1,0v1a.5.5,0,0,0,1,0Z" fill-rule="evenodd"/>
</svg>
