<svg width="16" height="15" viewBox="0 0 16 15" fill="none" xmlns="http://www.w3.org/2000/svg">
<path d="M8.48672 12.042C9.51519 12.042 10.1423 11.4749 10.2761 10.4228L10.9701 10.5132C10.828 11.8447 9.89982 12.6667 8.48672 12.6667C7.14051 12.6667 6.17893 11.8776 5.87791 10.5872H4.99995V9.9872H5.78594C5.77758 9.88035 5.77758 9.77351 5.77758 9.66666C5.77758 9.57625 5.77758 9.48583 5.78594 9.39542H4.99995V8.79542H5.86955C6.17057 7.48857 7.14051 6.66666 8.48672 6.66666C9.80785 6.66666 10.7527 7.44748 10.945 8.67214L10.2845 8.77899C10.0921 7.81734 9.46502 7.29131 8.48672 7.29131C7.50842 7.29131 6.81441 7.85022 6.56356 8.79542H8.97169V9.39542H6.46322C6.45486 9.48583 6.45486 9.57623 6.45486 9.66663C6.45486 9.77348 6.46322 9.88035 6.47158 9.9872H8.38638V10.5872H6.57192C6.83949 11.5078 7.51678 12.042 8.48672 12.042Z" fill="#050505"/>
<path fill-rule="evenodd" clip-rule="evenodd" d="M10.6667 3.33332C10.6667 3.68696 10.5978 4.02451 10.4728 4.33332H12.2402L15.7958 15H0.899414L3.74386 4.33332H5.52717C5.40217 4.02451 5.33333 3.68696 5.33333 3.33332C5.33333 1.86056 6.52724 0.666656 8 0.666656C9.47276 0.666656 10.6667 1.86056 10.6667 3.33332ZM6.26756 4.33332H9.73244C9.90261 4.03915 10 3.69761 10 3.33332C10 2.22875 9.10457 1.33332 8 1.33332C6.89543 1.33332 6 2.22875 6 3.33332C6 3.69761 6.09739 4.03915 6.26756 4.33332ZM4.25604 4.99999L1.76716 14.3333H14.8708L11.7597 4.99999H4.25604Z" fill="#050505"/>
</svg>
