<svg width="32" height="32" viewBox="0 0 32 32" fill="none" xmlns="http://www.w3.org/2000/svg">
<g id="Burger">
<g id="Union">
<path d="M4.5 7C4.5 6.72386 4.72386 6.5 5 6.5H27C27.2761 6.5 27.5 6.72386 27.5 7V9C27.5 9.27614 27.2761 9.5 27 9.5H5C4.72386 9.5 4.5 9.27614 4.5 9V7Z" fill="#050505"/>
<path d="M4.5 15C4.5 14.7239 4.72386 14.5 5 14.5H27C27.2761 14.5 27.5 14.7239 27.5 15V17C27.5 17.2761 27.2761 17.5 27 17.5H5C4.72386 17.5 4.5 17.2761 4.5 17V15Z" fill="#050505"/>
<path d="M5 22.5C4.72386 22.5 4.5 22.7239 4.5 23V25C4.5 25.2761 4.72386 25.5 5 25.5H27C27.2761 25.5 27.5 25.2761 27.5 25V23C27.5 22.7239 27.2761 22.5 27 22.5H5Z" fill="#050505"/>
</g>
</g>
</svg>
