<svg xmlns="http://www.w3.org/2000/svg" width="16" height="16" viewBox="0 0 16 16"><path d="M13,2V0H11V2H5V0H3V2H0V15H16V2Zm2,12H1V5H15ZM15,4H1V3H15ZM10.43,7.68,9,8.56v-1l1.53-.91.9,0v5.88h-1ZM7.27,10.74c0-.63-.4-.92-1.19-.92h-.5V9H6c.7,0,1.09-.3,1.09-.83a.9.9,0,0,0-1-.84h0a1.11,1.11,0,0,0-1.16,1l-1-.15A2,2,0,0,1,6,6.5c1.15,0,2,.67,2,1.62a1.4,1.4,0,0,1-.72,1.22,1.52,1.52,0,0,1,.93,1.51c0,1.07-.84,1.78-2.1,1.78a2.11,2.11,0,0,1-2.3-1.9,1.34,1.34,0,0,1,0-.2l1-.14c.08.88.54,1.35,1.34,1.35S7.27,11.37,7.27,10.74Z"/></svg>