<svg height="24" viewBox="0 0 24 24" width="24" xmlns="http://www.w3.org/2000/svg">
  <title>calendar</title>
  <path d="M23.9,23H-.1V4h4V1h4V4h8V1h4V4h4Zm-1-15H.9V22h22ZM6.4,16.8l1-.1c.2.9.7,1.5,1.6,1.5a1.61,1.61,0,0,0,1.7-1.6c0-1-.8-1.8-2.4-1.4l.1-.8c.9.1,1.9-.3,1.9-1.3,0-.7-.5-1.2-1.4-1.2a1.45,1.45,0,0,0-1.5,1.4l-1-.2a2.39,2.39,0,0,1,2.5-2,2.28,2.28,0,0,1,2.5,2,1.88,1.88,0,0,1-1.2,1.6,1.85,1.85,0,0,1,1.6,1.9C11.9,18,10.6,19,9,19A2.39,2.39,0,0,1,6.4,16.8ZM15.9,19h-1V12.7a8.17,8.17,0,0,1-2,1.2V13a4.69,4.69,0,0,0,2.3-2h.7Zm7-14H.9V7h22ZM6.9,2h-2V4h2Zm12,0h-2V4h2Z" fill-rule="evenodd"/>
</svg>
