<svg height="24" viewBox="0 0 24 24" width="24" xmlns="http://www.w3.org/2000/svg">
  <title>champagne</title>
  <path d="M15.55,14.7a3,3,0,0,0,3.8,1.87h0a3,3,0,0,0,1.86-3.8c-.19-.55-.43-1.14-.7-1.76h-6A35.33,35.33,0,0,0,15.55,14.7Zm2.27-9.23L13.76,6.86c.19,1,.38,2.1.59,3.14h5.73C19.42,8.6,18.64,7.06,17.82,5.47Zm.49-1.23a72.46,72.46,0,0,1,3.86,8.19,4,4,0,0,1-2,4.88l1.21,3.52c.29.82,1.32.93,2.39.81l.25.74L19.27,24,19,23.21c.9-.48,1.69-1.21,1.41-2.05L19.2,17.64A4,4,0,0,1,14.61,15a62.74,62.74,0,0,1-2-8.84ZM9.44,11h-6c-.27.62-.51,1.21-.7,1.76a3,3,0,0,0,1.86,3.8h0a3,3,0,0,0,3.8-1.87A35.33,35.33,0,0,0,9.44,11ZM3.92,10H9.65c.21-1,.4-2.11.59-3.14l-4-1.39C5.36,7.06,4.57,8.6,3.92,10Zm7.45-3.81a62.74,62.74,0,0,1-2,8.84A4,4,0,0,1,4.8,17.64L3.59,21.16C3.31,22,4.1,22.73,5,23.21L4.73,24,0,22.38l.25-.74c1.07.12,2.1,0,2.39-.81l1.22-3.52a4,4,0,0,1-2-4.88A72.46,72.46,0,0,1,5.69,4.24ZM18.5,14a.75.75,0,1,1-.75.75A.76.76,0,0,1,18.5,14ZM4,14.25a.75.75,0,1,0,.75-.75A.76.76,0,0,0,4,14.25ZM7.25,12a.75.75,0,1,1-.75.75A.76.76,0,0,1,7.25,12Zm10.5-.5a.75.75,0,1,1-.75.75A.76.76,0,0,1,17.75,11.5Zm-5.25-8V.5A.5.5,0,0,0,12,0a.5.5,0,0,0-.5.5v3A.5.5,0,0,0,12,4,.5.5,0,0,0,12.5,3.52ZM14.43,4,16.07,1.2A.49.49,0,0,0,15.9.51a.51.51,0,0,0-.69.18L13.57,3.48a.5.5,0,0,0,.18.68.45.45,0,0,0,.25.07A.5.5,0,0,0,14.43,4Zm-4.55.25A.5.5,0,0,1,9.45,4L7.81,1.2A.51.51,0,0,1,8,.51a.51.51,0,0,1,.69.18l1.64,2.79a.5.5,0,0,1-.18.68A.45.45,0,0,1,9.88,4.23Z" fill-rule="evenodd"/>
</svg>
