<svg height="24" viewBox="0 0 24 24" width="24" xmlns="http://www.w3.org/2000/svg">
  <title>check1</title>
  <path d="M18.63,4.23c-.16-.16-.41-.32-.57-.16-.56.56-1.49.58-1.92,1.35v0c-.57.67-1.38,1.08-1.63,2a.35.35,0,0,0,.08,0l-.08,0c-.15.08-.16.23-.16.38l0,0a11.4,11.4,0,0,1-.89,1.08h0c-.08.15-.15.24-.23.37l-.09,0c-.23.41-.55.76-.8,1.17h0a10.34,10.34,0,0,1-.53,1l-.2.2a1.54,1.54,0,0,0-.05.17,2.6,2.6,0,0,0-.62,1.39l0,.05c-.09.07-.16.23-.25.32l0,.06a3.05,3.05,0,0,0-.7.88.18.18,0,0,0-.07.05.73.73,0,0,0-.16.41.06.06,0,0,0,0,0,4.53,4.53,0,0,0-.79,1.11l.08.08-.06,0c-.25.07-.09.67-.57.57l-.14-.09c-.23-.38-.44-.81-.66-1.27a.43.43,0,0,1,0-.11v-.12h0a.08.08,0,0,0,0,0,.3.3,0,0,1,0-.13c-.07-.22-.18-.47-.27-.72l-.09-.28A2.18,2.18,0,0,1,7,13.46a1.89,1.89,0,0,0-.8-1l0,0a.81.81,0,0,0-1.07-.24c-.39.25-.16.67.09.92a0,0,0,0,1,0,0,.91.91,0,0,0,.15.38h0A19.54,19.54,0,0,0,7,18.09a1,1,0,0,0,.07-.15,1,1,0,0,1,0,.17,1.15,1.15,0,0,0,.23.55l0,0H7.29c.51.67,1.08,1.17,2.05.76v0a1.26,1.26,0,0,0,.68-.78l.12-.1c0-.25.09-.41.09-.57.74-.48.9-1.31,1.31-2.07A6,6,0,0,1,12,15a3.86,3.86,0,0,0,.8-2.12l-.08,0,0,0c.07,0,.08-.07.09-.11l0,0c.48-.07.48-.51.57-.83l-.12.08.12-.17.16-.16v0l0,0a9.67,9.67,0,0,0,2.11-3,.56.56,0,0,1,.05-.08s0,.06,0,.08c.32-.41,1.06-.64.64-1.4h0c.9-.25,1.22-1,1.7-1.59h0c.07-.16.16-.25.23-.41h0c.09-.09.25-.16.34-.25V5C19,4.78,18.87,4.47,18.63,4.23ZM16.2,6l0,0-.11,0ZM7.54,16.87h0l-.08.06Zm-.13.34s0,0,0,.05h0S7.4,17.23,7.41,17.21Z" fill-rule="evenodd"/>
</svg>
