<svg height="16" viewBox="0 0 16 16" width="16" xmlns="http://www.w3.org/2000/svg">
  <path d="m8,0C3.59,0,0,3.59,0,8s3.59,8,8,8,8-3.59,8-8S12.41,0,8,0Zm1.72,5.49c0,.05-.01.1-.1.05-.27-.1-.57-.16-1.08-.16-1.19,0-1.87.74-2.03,1.59h2.17s.05.01.05.05v.55c0,.05-.03.05-.05.05h-2.24c-.01.19-.01.44-.01.6h2.25s.05.01.05.07v.54s-.01.07-.05.07h-2.17c.17,1.01.94,1.69,2.03,1.69.47,0,.75-.02,1.09-.14.03-.01.07,0,.07.05v.99s-.02.1-.07.12c-.29.12-.66.15-1.26.15-1.74,0-2.94-1.19-3.14-2.85h-.57s-.05-.01-.05-.07v-.54s.01-.07.05-.07h.5c0-.2,0-.4.01-.6h-.49c-.05,0-.07-.01-.07-.05v-.54c0-.05.02-.07.05-.07h.58c.3-1.58,1.54-2.74,3.25-2.74.56,0,.89.03,1.15.14.05.01.07.05.07.12v.99Z" />
</svg>
