<svg xmlns="http://www.w3.org/2000/svg" width="24" height="24" viewBox="0 0 24 24"><path d="M16.87,14.63l1,.14A3.45,3.45,0,0,1,14.19,18a3.82,3.82,0,0,1-3.92-3.12H9V14h1.17c0-.16,0-.32,0-.48s0-.27,0-.41H9v-.9h1.3A3.87,3.87,0,0,1,14.19,9a3.49,3.49,0,0,1,3.68,3l-1,.16a2.54,2.54,0,0,0-2.69-2.23,2.84,2.84,0,0,0-2.89,2.25h3.61v.9H11.15c0,.14,0,.27,0,.41s0,.32,0,.48H14v.9H11.31a2.83,2.83,0,0,0,2.88,2.18A2.49,2.49,0,0,0,16.87,14.63ZM24,13.5A10.43,10.43,0,0,1,4.93,19.42h0A10.48,10.48,0,1,1,19.08,4.59,10.51,10.51,0,0,1,24,13.5ZM3.79,17.24h0A10.73,10.73,0,0,1,3.1,13.5,10.49,10.49,0,0,1,13.55,3a10.26,10.26,0,0,1,3.34.55A9.48,9.48,0,0,0,3.79,17.24ZM23,13.5A9.46,9.46,0,1,0,13.55,23,9.49,9.49,0,0,0,23,13.5Z" fill-rule="evenodd"/></svg>
