<svg height="24" viewBox="0 0 24 24" width="24" xmlns="http://www.w3.org/2000/svg">
  <path d="M12,1A2.8,2.8,0,0,0,9.2,3.8a3.16,3.16,0,0,0,1.1,2.3C9.8,8.9,8.4,9.2,7.4,9.2A3.09,3.09,0,0,1,4.9,7.5a2.94,2.94,0,0,0,.7-1.9A2.86,2.86,0,0,0,2.8,2.8,2.88,2.88,0,0,0,0,5.7,3.06,3.06,0,0,0,2,8.5V23H22V8.4a2.92,2.92,0,0,0,2-2.8,2.8,2.8,0,0,0-5.6,0,2.94,2.94,0,0,0,.7,1.9,2.82,2.82,0,0,1-2.5,1.7c-.6,0-2.3,0-2.9-3.2a3,3,0,0,0,1-2.9A2.71,2.71,0,0,0,12,1Zm9,21V19H3v3Zm0-4V7.7c1.1-.3,2-.9,2-2.1a1.8,1.8,0,0,0-3.6,0,2.62,2.62,0,0,0,.9,1.8c-.8,1.6-1.9,2.8-3.7,2.8-2.5,0-3.6-1.9-3.9-4.5.7-.7,1.3-1.3,1.1-2.3A1.83,1.83,0,0,0,12,2a1.79,1.79,0,0,0-1.8,1.8c0,.8.5,1.3,1.2,1.9-.3,2.7-1.4,4.5-3.9,4.5-1.9,0-2.9-1.4-3.7-2.7a3,3,0,0,0,1-1.9A1.79,1.79,0,0,0,3,3.8,1.92,1.92,0,0,0,1,5.7c0,1.1.9,1.8,2,2.1V18Z" fill-rule="evenodd" />
</svg>
