<svg xmlns="http://www.w3.org/2000/svg" width="24" height="24" viewBox="0 0 24 24"><path d="M7.17,4.78a7.66,7.66,0,0,1,5-1.72A7.46,7.46,0,0,1,17,4.69a7,7,0,0,1,2.39,4.4l-1,.15a6,6,0,0,0-2-3.78,6.48,6.48,0,0,0-4.22-1.4A6.6,6.6,0,0,0,7.81,5.55,7.23,7.23,0,0,0,5.46,9.6L5.4,10H12v1H5.27l0,.25c0,.22,0,.45,0,.7s0,.57,0,.84l.11.71H10v1H5.5a7,7,0,0,0,2.32,3.9,6.69,6.69,0,0,0,4.35,1.45,6.48,6.48,0,0,0,4.39-1.49,6.13,6.13,0,0,0,1.94-4.09l1,.1a7.1,7.1,0,0,1-2.27,4.73,7.41,7.41,0,0,1-5,1.75,7.76,7.76,0,0,1-5-1.67A8.13,8.13,0,0,1,4.5,14.64v0l0-.12H1v-1H4.33l-.09-.6h0c0-.32,0-.64,0-.93v0a7.13,7.13,0,0,1,0-.79v0l0-.13H1V10H4.4l.07-.58v0A8.25,8.25,0,0,1,7.17,4.78Z"/></svg>