<svg xmlns="http://www.w3.org/2000/svg" width="24" height="24" viewBox="0 0 24 24"><path d="M4.35,8.69C5.5,3.69,9.24.5,14.41.5a9.89,9.89,0,0,1,6.37,2.11A9,9,0,0,1,23.9,8.28l-1,.15a7.93,7.93,0,0,0-2.77-5A8.88,8.88,0,0,0,14.41,1.5c-4.67,0-8,2.83-9.08,7.4l-.09.6H14v1H5.11L5,11.06c0,.3,0,.61,0,.94s0,.76,0,1.12l.06.38H12v1H5.24l.12.78a9.37,9.37,0,0,0,3.16,5.29,9.16,9.16,0,0,0,5.89,1.93,8.83,8.83,0,0,0,6-2A8.19,8.19,0,0,0,23,15.05l1,.11a9.17,9.17,0,0,1-3,6.1,9.82,9.82,0,0,1-6.62,2.24,10.17,10.17,0,0,1-6.52-2.15,10.34,10.34,0,0,1-3.51-5.86v0l-.15-1H0v-1H4.07l0-.27v0c0-.41,0-.82,0-1.2v0c0-.33,0-.68,0-1H4l.07-.45H0v-1H4.23l.11-.79Z"/></svg>
