<svg width="24" height="24" viewBox="0 0 24 24" fill="none" xmlns="http://www.w3.org/2000/svg">
<g clip-path="url(#clip0)">
<path fill-rule="evenodd" clip-rule="evenodd" d="M12.01 20C6.945 20 2.424 15.789 0 11.576C2.418 7.473 6.943 4 12.01 4C17.145 4 21.645 7.453 24.009 11.564C21.768 15.994 17.283 20 12.01 20ZM1.168 11.584C2.011 12.915 6.186 19 12.01 19C18.315 19 22.122 12.897 22.861 11.595C22.089 10.397 18.255 5 12.01 5C5.894 5 1.985 10.355 1.168 11.584ZM12 7C14.76 7 17 9.24 17 12C17 14.76 14.76 17 12 17C9.24 17 7 14.76 7 12C7 9.24 9.24 7 12 7ZM12 8C14.208 8 16 9.792 16 12C16 14.208 14.208 16 12 16C9.792 16 8 14.208 8 12C8 9.792 9.792 8 12 8Z" fill="#050505"/>
</g>
<defs>
<clipPath id="clip0">
<rect width="24" height="24" fill="white"/>
</clipPath>
</defs>
</svg>
