<svg xmlns="http://www.w3.org/2000/svg" width="24" height="24" viewBox="0 0 24 24">
  <path d="M10.63,8.3H10v-1h.5c0-.16,0-.33,0-.5H10v-1h.68a4.09,4.09,0,0,1,.46-1.08A3.17,3.17,0,0,1,14,3.3a3.16,3.16,0,0,1,2.15.82A2.37,2.37,0,0,1,17,5.8H16a1.45,1.45,0,0,0-.52-.94A2.2,2.2,0,0,0,14,4.3a2.17,2.17,0,0,0-2,1,3,3,0,0,0-.26.54H14.5v1h-3c0,.17,0,.34,0,.5H14v1H11.68a2.45,2.45,0,0,0,.44.73A2.42,2.42,0,0,0,14,9.8a1.92,1.92,0,0,0,2-1.12l1,.24a2.92,2.92,0,0,1-3,1.88,3.37,3.37,0,0,1-2.62-1.11A3.43,3.43,0,0,1,10.63,8.3ZM7,7a7,7,0,1,1,7,7A7,7,0,0,1,7,7ZM8,7a6,6,0,1,0,6-6A6,6,0,0,0,8,7ZM22,17.14a1.87,1.87,0,0,1-.63,1.36C20,19.78,19,20.73,18,21.57l-.21.2c-.48.42-.91.81-1.33,1.2A3.46,3.46,0,0,1,14,24a4.53,4.53,0,0,1-1.3-.2A26.72,26.72,0,0,0,7,22.67V24H2V15H7v1.73a17.51,17.51,0,0,0,1.77-.68,4.61,4.61,0,0,1,1.88-.42,8.57,8.57,0,0,1,2.93.72q.6.22,1.38.48a1.72,1.72,0,0,1,1.17,1.31L19,15.94l.09-.07a1.92,1.92,0,0,1,1.2-.43A1.74,1.74,0,0,1,22,17.14ZM6,16H3v7H6Zm13.69.65S16.73,19,16,19.5a1.92,1.92,0,0,1-1.15.52A1.55,1.55,0,0,1,14.5,20l-.19,0c-.68-.16-1.77-.41-2.56-.66a.45.45,0,1,1,.27-.86c.44.1,1.59.36,2.2.52,1,.29,1.27-.86.42-1.15l-.57-.2-1.32-.46A4.29,4.29,0,0,0,9.16,17,16.15,16.15,0,0,1,7,17.78v3.88a29.74,29.74,0,0,1,6,1.15,2.63,2.63,0,0,0,2.78-.58l1.56-1.41c.93-.82,2-1.78,3.37-3.05C21.53,17,20.53,16,19.69,16.65Z" fill-rule="evenodd"/></svg>
