<svg xmlns="http://www.w3.org/2000/svg" width="24" height="24" viewBox="0 0 24 24">
  <path d="M19.1,24H5.91A2,2,0,0,1,4,22a2,2,0,0,1,1.31-1.88c-.56-3.18,1.63-5.65,3.27-7.38.84-.89,1.64-1.73,1.63-2.28a.73.73,0,0,0-.63-.62c-.71,0-1.85,1.29-3.21,1.29A2.57,2.57,0,0,1,4,8.57a1.79,1.79,0,0,1,.91-1.81A3.79,3.79,0,0,0,6.85,4.38a2.47,2.47,0,0,1,2.27-2c1.14,0,1.75.48,1.4-.54A6.13,6.13,0,0,0,9.35,0c6,0,10.71,4.18,10.71,9.55,0,5.59-3.21,7.56-.89,10.46A2,2,0,0,1,21,22,2,2,0,0,1,19.1,24ZM6.25,21H5.91A1,1,0,0,0,5,22a1,1,0,0,0,.93,1H19.1a1,1,0,1,0-.17-2ZM18.9,8a9.1,9.1,0,0,0-7.62-6.85c1.21,2.28-.51,2.49-1.52,2.31-1.48-.26-1.64.38-2,1.29a4.77,4.77,0,0,1-2.4,2.91C4.64,8,5.11,9.78,6,10.07A2.51,2.51,0,0,0,7.93,9.5a3.26,3.26,0,0,1,1.65-.66,1.71,1.71,0,0,1,1.61,1.6c0,1-.83,1.86-1.91,3C6.37,16.51,6,18.1,6.31,20H18c-.95-1.59-.72-2.95,0-5H16.6a.5.5,0,0,1,0-1h1.69c.11-.32.21-.65.31-1H17.21a.5.5,0,0,1,0-1h1.62A10,10,0,0,0,19,11H17.6a.5.5,0,0,1,0-1h1.47V9.55a5.21,5.21,0,0,0,0-.55H17.38a.5.5,0,0,1,0-1ZM9.78,6.9A1.38,1.38,0,0,1,8.37,5.56a1.42,1.42,0,0,1,2.83,0A1.38,1.38,0,0,1,9.78,6.9Zm0-1.68a.4.4,0,0,0-.43.34.45.45,0,0,0,.87,0A.4.4,0,0,0,9.78,5.22Z" fill-rule="evenodd"/></svg>
