<svg height="46" viewBox="0 0 46 46" width="46" xmlns="http://www.w3.org/2000/svg">
  <path d="M23,16.44c2.14,0,2.39,0,3.23,0a4.09,4.09,0,0,1,1.49.28,2.56,2.56,0,0,1,1.51,1.51,4.32,4.32,0,0,1,.28,1.49c0,.84,0,1.09,0,3.23s0,2.39,0,3.23a4,4,0,0,1-.28,1.49,2.42,2.42,0,0,1-.59.92,2.57,2.57,0,0,1-.92.6,4.39,4.39,0,0,1-1.49.27c-.84,0-1.09,0-3.23,0s-2.39,0-3.23,0a4.28,4.28,0,0,1-1.49-.27,2.67,2.67,0,0,1-1.52-1.52,4.28,4.28,0,0,1-.27-1.49c0-.84,0-1.09,0-3.23s0-2.39,0-3.23a4.39,4.39,0,0,1,.27-1.49,2.57,2.57,0,0,1,.6-.92,2.42,2.42,0,0,1,.92-.59,4.21,4.21,0,0,1,1.49-.28C20.61,16.45,20.86,16.44,23,16.44ZM23,15c-2.17,0-2.45,0-3.3.05a5.85,5.85,0,0,0-1.94.37,3.94,3.94,0,0,0-1.42.92,4.17,4.17,0,0,0-.92,1.42,5.85,5.85,0,0,0-.37,1.94c0,.85-.05,1.13-.05,3.3s0,2.44.05,3.3a5.85,5.85,0,0,0,.37,1.94,3.94,3.94,0,0,0,.92,1.42,4.17,4.17,0,0,0,1.42.92A5.85,5.85,0,0,0,19.7,31c.86,0,1.13.05,3.3.05s2.45,0,3.3-.05a5.85,5.85,0,0,0,1.94-.37,3.86,3.86,0,0,0,1.42-.92,4,4,0,0,0,.92-1.42A5.82,5.82,0,0,0,31,26.3c0-.86,0-1.13,0-3.3s0-2.45,0-3.3a5.82,5.82,0,0,0-.38-1.94,4,4,0,0,0-2.34-2.34A5.77,5.77,0,0,0,26.3,15C25.44,15,25.17,15,23,15Z" />
  <path d="M23,18.89A4.11,4.11,0,1,0,27.11,23,4.11,4.11,0,0,0,23,18.89Zm0,6.78A2.67,2.67,0,1,1,25.67,23,2.68,2.68,0,0,1,23,25.67Z" />
  <path d="M27.27,19.69a1,1,0,1,0-1-1A1,1,0,0,0,27.27,19.69Z" />
</svg>
