<svg height="24" width="24" xmlns="http://www.w3.org/2000/svg" viewBox="0 0 24 24">
  <path d="M12,5.44c2.14,0,2.39,0,3.23.05.78.03,1.2.17,1.49.28.37.15.64.32.92.6s.45.55.6.92c.11.28.24.7.28,1.49.04.84.05,1.1.05,3.23s0,2.39-.05,3.23c-.03.78-.17,1.2-.28,1.49-.15.37-.32.64-.6.92s-.55.45-.92.6c-.28.11-.7.24-1.49.28-.84.04-1.1.05-3.23.05s-2.39,0-3.23-.05c-.78-.03-1.2-.17-1.49-.28-.37-.15-.64-.32-.92-.6s-.45-.55-.6-.92c-.11-.28-.24-.7-.28-1.49-.04-.84-.05-1.1-.05-3.23s0-2.39.05-3.23c.03-.78.17-1.2.28-1.49.15-.37.32-.64.6-.92s.55-.45.92-.6c.28-.11.7-.24,1.49-.28.84-.04,1.1-.05,3.23-.05ZM12,4c-2.17,0-2.44,0-3.3.05-.85.04-1.43.17-1.94.37-.53.2-.97.48-1.42.92-.44.44-.72.89-.92,1.42-.2.51-.33,1.09-.37,1.94-.04.85-.05,1.12-.05,3.3s0,2.44.05,3.3c.04.85.17,1.43.37,1.94.2.53.48.97.92,1.42.44.44.89.72,1.42.92.51.2,1.09.33,1.94.37.85.04,1.12.05,3.3.05s2.44,0,3.3-.05c.85-.04,1.43-.17,1.94-.37.53-.2.97-.48,1.42-.92.44-.44.72-.89.92-1.42.2-.51.33-1.09.37-1.94.04-.85.05-1.12.05-3.3s0-2.44-.05-3.3c-.04-.85-.17-1.43-.37-1.94-.2-.53-.48-.97-.92-1.42-.44-.44-.89-.72-1.42-.92-.51-.2-1.09-.33-1.94-.37-.86-.03-1.13-.04-3.3-.04ZM12,7.89c-2.27,0-4.11,1.84-4.11,4.11s1.84,4.11,4.11,4.11,4.11-1.84,4.11-4.11-1.84-4.11-4.11-4.11ZM12,14.67c-1.47,0-2.67-1.19-2.67-2.67s1.19-2.67,2.67-2.67,2.67,1.19,2.67,2.67-1.19,2.67-2.67,2.67ZM16.27,8.69c.53,0,.96-.43.96-.96s-.43-.96-.96-.96-.96.43-.96.96.43.96.96.96Z"/>
</svg>
