<svg width="46" height="46" viewBox="0 0 46 46" fill="none" xmlns="http://www.w3.org/2000/svg">
<path d="M22.9984 16.4416C25.1353 16.4416 25.3862 16.4511 26.2308 16.4892C27.0119 16.5241 27.4342 16.6543 27.7168 16.7654C28.0915 16.9115 28.3582 17.083 28.6376 17.3624C28.917 17.6418 29.0917 17.9085 29.2346 18.2832C29.3425 18.5658 29.4759 18.9881 29.5108 19.7692C29.5489 20.6138 29.5584 20.8647 29.5584 23.0016C29.5584 25.1385 29.5489 25.3894 29.5108 26.234C29.4759 27.0151 29.3457 27.4374 29.2346 27.72C29.0885 28.0947 28.917 28.3614 28.6376 28.6408C28.3582 28.9202 28.0915 29.0949 27.7168 29.2377C27.4342 29.3457 27.0119 29.4791 26.2308 29.514C25.3862 29.5521 25.1353 29.5616 22.9984 29.5616C20.8615 29.5616 20.6106 29.5521 19.766 29.514C18.9849 29.4791 18.5626 29.3489 18.28 29.2377C17.9053 29.0917 17.6386 28.9202 17.3592 28.6408C17.0798 28.3614 16.9051 28.0947 16.7623 27.72C16.6543 27.4374 16.5209 27.0151 16.486 26.234C16.4479 25.3894 16.4384 25.1385 16.4384 23.0016C16.4384 20.8647 16.4479 20.6138 16.486 19.7692C16.5209 18.9881 16.6511 18.5658 16.7623 18.2832C16.9083 17.9085 17.0798 17.6418 17.3592 17.3624C17.6386 17.083 17.9053 16.9083 18.28 16.7654C18.5626 16.6575 18.9849 16.5241 19.766 16.4892C20.6106 16.4479 20.8647 16.4416 22.9984 16.4416ZM22.9984 15C20.8266 15 20.5535 15.0095 19.6993 15.0476C18.8484 15.0857 18.2673 15.2223 17.7593 15.4191C17.2322 15.6223 16.7877 15.8986 16.3431 16.3431C15.8986 16.7877 15.6255 17.2354 15.4191 17.7593C15.2223 18.2673 15.0857 18.8484 15.0476 19.7025C15.0095 20.5535 15 20.8266 15 22.9984C15 25.1703 15.0095 25.4433 15.0476 26.2975C15.0857 27.1484 15.2223 27.7295 15.4191 28.2407C15.6223 28.7678 15.8986 29.2123 16.3431 29.6569C16.7877 30.1014 17.2354 30.3745 17.7593 30.5809C18.2673 30.7777 18.8484 30.9143 19.7025 30.9524C20.5567 30.9905 20.8266 31 23.0016 31C25.1766 31 25.4465 30.9905 26.3007 30.9524C27.1516 30.9143 27.7327 30.7777 28.2439 30.5809C28.771 30.3777 29.2155 30.1014 29.6601 29.6569C30.1046 29.2123 30.3777 28.7646 30.584 28.2407C30.7809 27.7327 30.9174 27.1516 30.9555 26.2975C30.9937 25.4433 31.0032 25.1734 31.0032 22.9984C31.0032 20.8234 30.9937 20.5535 30.9555 19.6993C30.9174 18.8484 30.7809 18.2673 30.584 17.7561C30.3808 17.229 30.1046 16.7845 29.6601 16.3399C29.2155 15.8954 28.7678 15.6223 28.2439 15.416C27.7359 15.2191 27.1548 15.0826 26.3007 15.0445C25.4433 15.0095 25.1703 15 22.9984 15Z" fill="#050505"/>
<path d="M22.9994 18.8926C20.7323 18.8926 18.8906 20.731 18.8906 23.0013C18.8906 25.2716 20.7291 27.1101 22.9994 27.1101C25.2697 27.1101 27.1081 25.2716 27.1081 23.0013C27.1081 20.731 25.2697 18.8926 22.9994 18.8926ZM22.9994 25.6654C21.5261 25.6654 20.3322 24.4715 20.3322 22.9982C20.3322 21.5248 21.5261 20.331 22.9994 20.331C24.4727 20.331 25.6666 21.5248 25.6666 22.9982C25.6666 24.4715 24.4727 25.6654 22.9994 25.6654Z" fill="#050505"/>
<path d="M27.2675 19.6874C27.7971 19.6874 28.2264 19.258 28.2264 18.7285C28.2264 18.1989 27.7971 17.7695 27.2675 17.7695C26.7379 17.7695 26.3086 18.1989 26.3086 18.7285C26.3086 19.258 26.7379 19.6874 27.2675 19.6874Z" fill="#050505"/>
</svg>
