<svg height="24" viewBox="0 0 24 24" width="24" xmlns="http://www.w3.org/2000/svg">
  <title>definition</title>
  <path d="M21,18.5a10,10,0,0,1-2,.9v-5a14.67,14.67,0,0,0-7,2,17.62,17.62,0,0,0-7-2v5a10,10,0,0,1-2-.9V16.6c0-2,.1-2.5,1.9-2.9,2.3-.5,4.6-.8,5.2-2.3A2.51,2.51,0,0,0,9.6,9C8,6.7,7.6,4.6,8.4,3A4,4,0,0,1,12,1a4.08,4.08,0,0,1,3.6,2c.8,1.6.4,3.7-1.2,6a2.51,2.51,0,0,0-.5,2.4c.6,1.5,2.9,1.8,5.2,2.3,1.8.4,1.9.9,1.9,3ZM18,21a28.54,28.54,0,0,0-5.5,1.6V17.2A14.82,14.82,0,0,1,18,15.5Zm-6.5,1.6A28.54,28.54,0,0,0,6,21V15.5a14.82,14.82,0,0,1,5.5,1.7Zm7.9-9.9c-2.9-.6-5.7-1-4.1-3.1C19.1,4,15.9,0,12,0S4.9,4,8.8,9.5c1.6,2.2-1.3,2.5-4.1,3.1-2.6.6-2.7,1.9-2.7,4v2.5a9.53,9.53,0,0,0,3,1.4v1.4A26.41,26.41,0,0,1,12,24a22.68,22.68,0,0,1,7-2.1V20.5a13.4,13.4,0,0,0,3-1.4V16.6C22,14.5,21.9,13.2,19.4,12.7Z" />
</svg>
