<svg height="24" viewBox="0 0 24 24" width="24" xmlns="http://www.w3.org/2000/svg">
  <title>link</title>
  <path d="M14.85,11.92a4.06,4.06,0,0,0-1-1.75,4,4,0,0,0-5.66,0l-5,5a4,4,0,0,0,5.66,5.66L12.67,17H13a5.86,5.86,0,0,0,1.19-.12L9.53,21.54a5,5,0,0,1-7.07-7.07l5-5a5,5,0,0,1,7.07,0,4.93,4.93,0,0,1,1.11,1.67Zm-5.7.15a4.1,4.1,0,0,0,1,1.76,4,4,0,0,0,5.66,0l5-5a4,4,0,1,0-5.66-5.66L11.33,7H11a5.86,5.86,0,0,0-1.19.12l4.66-4.66a5,5,0,0,1,7.07,7.07l-5,5a5,5,0,0,1-7.07,0,4.74,4.74,0,0,1-1.11-1.68Z" />
</svg>
