<svg xmlns="http://www.w3.org/2000/svg" width="24" height="24" viewBox="0 0 24 24">
<path d="M6.6,5.4,8,7.8l.9-2.6,2.7-.6L9.3,2.9,9.5.2,7.3,1.8,4.8.7l.8,2.6L3.8,5.4ZM6.4,2.5l1,.4.9-.7V3.4l.9.7-1.1.2L7.7,5.4l-.6-1H6l.7-.9ZM21.7,7.3l1.1.8.1-1.4L24,6l-1.3-.5-.4-1.3-.9,1.1H20l.8,1.1-.4,1.3Zm.2-1.1ZM16,1.2a1,1,0,1,1,2,0,1,1,0,0,1-2,0Zm1.7,15.4,1.1.8-1.4.3L17,19l-.7-1.2H14.9l.9-1-.4-1.3,1.3.5,1.1-.8ZM23,13.2a1,1,0,1,1-1-1A.94.94,0,0,1,23,13.2ZM.9,19a2.6,2.6,0,0,0,0,3.8,2.6,2.6,0,0,0,3.8,0L19.6,8,15.8,4.2ZM4,22.1a1.63,1.63,0,0,1-2.4,0,1.82,1.82,0,0,1,0-2.4L12.2,9.1l2.4,2.4ZM15.3,10.8,12.9,8.4l2.9-2.9,2.4,2.4Z"/></svg>