<svg height="24" viewBox="0 0 24 24" width="24" xmlns="http://www.w3.org/2000/svg">
  <path d="M15.8,16.6A9.26,9.26,0,0,1,9.1,19a9.45,9.45,0,0,1-6.5-3A9.21,9.21,0,0,1,0,9.4,9.24,9.24,0,0,1,2.8,2.8,9.07,9.07,0,0,1,9.4,0a9.71,9.71,0,0,1,6.7,2.6,9.43,9.43,0,0,1,.6,13.2l7.4,7.4-.8.8ZM14.2,2.4A8.63,8.63,0,0,0,9.5,1,8.54,8.54,0,0,0,1,9.5a8.63,8.63,0,0,0,1.4,4.7,8.21,8.21,0,0,0,3.8,3.1,9.2,9.2,0,0,0,4.9.5,8.54,8.54,0,0,0,4.4-2.3,8.18,8.18,0,0,0,2.3-4.4,8.23,8.23,0,0,0-.5-4.9A8.74,8.74,0,0,0,14.2,2.4Z" />
</svg>
