<svg xmlns="http://www.w3.org/2000/svg" width="32" height="32" viewBox="0 0 32 32"><path d="m13.59,6.72l3.97,3.97,1.14-1.14-1.99-1.99c4.86.36,8.69,4.41,8.69,9.36s-4.2,9.39-9.39,9.39-9.39-4.2-9.39-9.39c0-2.38.89-4.55,2.35-6.21.26-.29.54-.57.83-.83l-1.07-1.21c-.34.3-.67.63-.97.97-1.71,1.94-2.75,4.49-2.75,7.28,0,6.08,4.92,11,11,11s11-4.92,11-11-4.57-10.64-10.34-10.98l2.04-2.04-1.14-1.14-3.97,3.97Zm.15,3.97l-3.97-3.97,3.97-3.97,1.14,1.14-2.83,2.83,2.83,2.83-1.14,1.14Zm.21,2.34v7.92h-1.44v-6.25l-1.91.63v-1.16l3.18-1.15h.16Zm7.31,3.29v1.33c0,.61-.06,1.13-.18,1.56-.12.43-.3.78-.53,1.06-.23.27-.51.47-.83.6-.32.13-.68.19-1.07.19-.31,0-.61-.04-.88-.12-.27-.08-.52-.21-.73-.38-.21-.17-.4-.39-.55-.66-.15-.27-.27-.59-.35-.96-.08-.37-.12-.8-.12-1.29v-1.33c0-.61.06-1.13.18-1.55.13-.43.31-.78.54-1.05.23-.27.51-.47.83-.59.32-.13.68-.19,1.07-.19.32,0,.61.04.88.12.27.08.51.2.73.37.22.17.4.38.55.65.15.26.27.58.35.96.08.37.12.8.12,1.28Zm-1.43,1.53v-1.73c0-.3-.02-.57-.05-.79-.03-.23-.08-.42-.15-.58-.07-.16-.15-.29-.24-.39-.1-.1-.21-.18-.34-.22-.13-.05-.27-.07-.42-.07-.19,0-.36.04-.5.11-.15.07-.27.19-.37.35-.1.16-.18.37-.23.64-.05.26-.08.58-.08.96v1.73c0,.3.02.57.05.8.04.23.09.42.15.59.07.16.15.3.24.4.1.1.21.18.34.23.13.05.27.07.42.07.19,0,.36-.04.5-.11.15-.08.27-.2.37-.36.1-.17.18-.38.23-.65.05-.27.08-.59.08-.97Z"/></svg>
