<svg height="24" viewBox="0 0 24 24" width="24" xmlns="http://www.w3.org/2000/svg">
  <title>money</title>
  <path d="M4.9,19.4A10.51,10.51,0,0,1,10.5,0a10.48,10.48,0,0,1,8.7,4.6A10.51,10.51,0,1,1,4.9,19.4ZM13.6,4a9.5,9.5,0,1,1-9.5,9.5A9.56,9.56,0,0,1,13.6,4Zm.5,15h-1v-.9a2.78,2.78,0,0,1-2.6-2.7h1.1c0,.4.2,1.8,2.2,1.8a2.41,2.41,0,0,0,1.5-.4,1.11,1.11,0,0,0,.5-1c0-.8-.5-1.4-2.1-1.7-2.4-.5-2.9-1.4-2.9-2.5a2.49,2.49,0,0,1,2.3-2.4V8h1V9a2.68,2.68,0,0,1,2.7,2.8H15.7a1.79,1.79,0,0,0-2-1.8c-1.1,0-1.9.5-1.9,1.4s.4,1.2,2,1.6c1.9.5,3,1.1,3,2.7a2.64,2.64,0,0,1-2.7,2.5ZM17,3.5A9.89,9.89,0,0,0,10.5,1,9.56,9.56,0,0,0,1,10.5a9.53,9.53,0,0,0,2.8,6.7h0a11.56,11.56,0,0,1-.7-3.7A10.5,10.5,0,0,1,13.6,3,12.7,12.7,0,0,1,17,3.5Z" fill-rule="evenodd"/>
</svg>
