<svg height="24" viewBox="0 0 24 24" width="24" xmlns="http://www.w3.org/2000/svg">
  <title>party</title>
  <path d="M17.52,10a.5.5,0,0,1-.15.69l-2.2,1.45a.53.53,0,0,1-.27.08.52.52,0,0,1-.42-.22.51.51,0,0,1,.14-.7l2.21-1.44A.5.5,0,0,1,17.52,10ZM11.27,7.42,12.39,5a.5.5,0,1,1,.9.42L12.18,7.84a.49.49,0,0,1-.45.29l-.21-.05A.5.5,0,0,1,11.27,7.42ZM8.65,8C10,5.38,10.14,2.93,9,.74A.49.49,0,0,1,9.41,0a.49.49,0,0,1,.44.26c1.33,2.49,1.23,5.26-.31,8.22a.51.51,0,0,1-.45.27.53.53,0,0,1-.23-.06A.5.5,0,0,1,8.65,8ZM24,13.56a.5.5,0,0,1-.67.47c-2.81-1-5.25-.83-7.27.61a.52.52,0,0,1-.29.09.49.49,0,0,1-.41-.21.5.5,0,0,1,.12-.7c2.3-1.63,5.06-1.88,8.19-.73A.48.48,0,0,1,24,13.56ZM7.52,11l2.86,7.52-2.25,1L5.38,11.92l.78-2.18Zm3.78,7.12L9.13,12.39l5,4.46ZM3,18.49l1,2.7-2.31,1Zm1.82-5.1,2.36,6.43-2.27,1L3.56,17ZM0,24l16-6.85L5.71,8ZM20.46,8.37,21,7.68l.28.84.83.31-.71.52,0,.89-.72-.51L19.8,10l.27-.84-.5-.74Zm-1.38.89-.64,2,2-.56,1.72,1.23.09-2.12L24,8.56l-2-.74-.67-2L20,7.47l-2.11,0Zm-2.17-4.2c.59,0,.92-.14,1.07-.31s.23-.65.17-1.44a.5.5,0,0,1,1-.08,3,3,0,0,1-.41,2.16A2.43,2.43,0,0,1,17,6c-.7.06-.72.25-.77.88a1.81,1.81,0,0,1-1.84,1.94c-1,.11-1.43.33-1.38,2,0,.28-.21.33-.48.33h0c-.27,0-.49,0-.5-.29-.05-1.47.19-2.66,2.27-2.89.87-.1.9-.41,1-1.07A1.67,1.67,0,0,1,16.91,5.06Zm5.26-3a.83.83,0,1,1-.82.83A.83.83,0,0,1,22.17,2Zm0,2.65a1.83,1.83,0,1,0-1.82-1.82A1.83,1.83,0,0,0,22.17,4.66ZM13.73,1a1,1,0,1,1-1,1A1,1,0,0,1,13.73,1Zm0,3a2,2,0,1,0-2-2A2,2,0,0,0,13.73,4Z" fill-rule="evenodd"/>
</svg>
