<svg xmlns="http://www.w3.org/2000/svg" width="16" height="16" viewBox="0 0 16 16"><path d="M15,8c0-3.86-3.14-7-7-7S1,4.14,1,8s3.14,7,7,7,7-3.14,7-7Zm1,0C16,3.58,12.42,0,8,0S0,3.58,0,8s3.58,8,8,8,8-3.58,8-8Zm-7.45,1.86v-.49c0-.49,.21-.73,1.12-1.3,1.12-.69,1.68-1.37,1.68-2.34,0-1.58-1.48-2.74-3.4-2.74-2.16,0-3.56,1.36-3.63,3.44l2.02,.15c.06-1.09,.64-1.71,1.61-1.71,.77,0,1.25,.36,1.25,.92,0,.48-.25,.77-1.16,1.3-.98,.6-1.36,1.13-1.36,2v.76h1.88Zm.22,3.14v-2.17h-2.24v2.17h2.24Z" fill-rule="evenodd"/></svg>