<svg height="24" viewBox="0 0 24 24" width="24" xmlns="http://www.w3.org/2000/svg">
  <title>question</title>
  <path d="M12,0A12,12,0,1,1,0,12,12,12,0,0,1,12,0Zm0,1A11,11,0,1,1,1,12,11,11,0,0,1,12,1Zm.05,17a.85.85,0,1,0-.84-.84A.85.85,0,0,0,12.05,18Zm.47-2.82h-1a4,4,0,0,1,.94-2.95,23.09,23.09,0,0,0,1.95-2.05C15.13,9,14.48,7,12.14,7A2.88,2.88,0,0,0,9.21,9.51l-1-.11A3.74,3.74,0,0,1,12.11,6a3.33,3.33,0,0,1,3.62,3.22c0,1.81-1.83,2.78-2.64,3.87A3.68,3.68,0,0,0,12.52,15.18Z" fill-rule="evenodd"/>
</svg>
