<svg height="24" viewBox="0 0 24 24" width="24" xmlns="http://www.w3.org/2000/svg">
  <title>quote2</title>
  <path d="M6.61,10.69a5,5,0,0,1,3.31,1.62,4.54,4.54,0,0,1,1.41,3.38,5,5,0,0,1-1.6,3.81A5.2,5.2,0,0,1,5.94,21a5.43,5.43,0,0,1-4.29-1.88A7.52,7.52,0,0,1,0,14.06Q0,7.57,5.76,2l4.1,3A9.24,9.24,0,0,0,6.61,10.69Zm12.68,0a5,5,0,0,1,3.3,1.62A4.54,4.54,0,0,1,24,15.69a5.08,5.08,0,0,1-1.59,3.87A5.42,5.42,0,0,1,18.55,21a5.35,5.35,0,0,1-4.22-1.88,7.47,7.47,0,0,1-1.66-5.06c0-4.41,1.92-8.44,5.76-12.06l4.1,3A8.77,8.77,0,0,0,19.29,10.69Z" fill-rule="evenodd"/>
</svg>
