<svg height="24" viewBox="0 0 24 24" width="24" xmlns="http://www.w3.org/2000/svg">
  <title>rate</title>
  <path d="M12,17.92l-1,2-2.21.3,1.61,1.56L10,24l2-1.06L14,24l-.39-2.2,1.61-1.56L13,19.94Zm-7.81,0-1,2L1,20.24,2.62,21.8,2.22,24l2-1.06,2,1.06-.4-2.2,1.62-1.56-2.22-.3Zm15.62,0-1,2-2.22.3,1.62,1.56-.4,2.2,2-1.06,2,1.06-.39-2.2L23,20.24l-2.22-.3ZM11.5,21.44,11,21l.7-.09.31-.64.31.64L13,21l-.51.49.13.7L12,21.81l-.62.33Zm-7.81,0L3.18,21l.7-.09.31-.64.31.64.71.09-.51.49.12.7-.63-.33-.62.33Zm15.62,0L18.8,21l.7-.09.31-.64.31.64.7.09-.51.49.12.7-.62-.33-.63.33ZM21,17H3V15.84c0-2.45.37-3.28,2.94-3.86s3.74-1,3.12-2.12C7.35,6.7,7,3.92,8.15,2A4.32,4.32,0,0,1,12,0a4.32,4.32,0,0,1,3.83,2c1.12,1.86.81,4.65-.89,7.85-.63,1.2.62,1.56,3.16,2.14S21,13.39,21,15.86ZM4,16H20c0-2,.07-2.54-2.12-3-1.79-.4-3.47-.78-4-1.89a1.83,1.83,0,0,1,.15-1.68c1.53-2.88,1.86-5.32.92-6.87A3.3,3.3,0,0,0,12,1,3.32,3.32,0,0,0,9,2.54c-.94,1.57-.61,4,.94,6.84a1.85,1.85,0,0,1,.16,1.69c-.5,1.11-2.26,1.5-3.95,1.89C4,13.45,4,13.9,4,16Z" fill-rule="evenodd"/>
</svg>
