<svg xmlns="http://www.w3.org/2000/svg" width="16" height="16" viewBox="0 0 16 16"><path d="M14.44,5.69c-.95.49-1.15.6-1.26.77a1.12,1.12,0,0,0-.14.66H16V8H12.06V7.27A2,2,0,0,1,12.38,6a3.67,3.67,0,0,1,1.45-1c1-.46,1.27-.77,1.27-1.27a.89.89,0,0,0-1-.88,1.18,1.18,0,0,0-1.2,1.24L12,4a2,2,0,0,1,2.1-2A1.77,1.77,0,0,1,16,3.75C16,4.62,15.63,5.09,14.44,5.69ZM1.26,7.85V14H0V5.22H1.24v.6h0A2.89,2.89,0,0,1,3.35,5,2.81,2.81,0,0,1,5.6,6h0A3.19,3.19,0,0,1,8,5a2.7,2.7,0,0,1,3,2.59V14H9.74V7.73a1.65,1.65,0,0,0-1.8-1.66A1.7,1.7,0,0,0,6.1,7.84V14H4.89V7.73A1.66,1.66,0,0,0,3.08,6.07,1.7,1.7,0,0,0,1.26,7.85Z"/></svg>
