<svg viewBox="0 0 24 24" width="24" height="24" fill="none" xmlns="http://www.w3.org/2000/svg">
<path d="M19.3766 7.90393C19.5844 7.48472 19.9221 7.17031 21.4416 6.39738C23.3507 5.42795 24 4.70742 24 3.43668C24 2.07424 22.7792 1 21.1558 1C19.2597 1 18.0779 2.33624 18 4.0262L18.974 4.1179C19.0779 2.75546 19.8442 1.91703 21.1429 1.91703C22.2078 1.91703 22.987 2.58515 22.987 3.43668C22.987 4.32751 22.4675 4.82533 20.6623 5.76856C19.3506 6.44978 18.7792 6.869 18.4416 7.45852C18.1558 7.96943 18.0779 8.50655 18.0779 9.17467V10H23.8831V9.04367H19.1558C19.1688 8.53275 19.2208 8.19214 19.3766 7.90393Z"/>
<path d="M2.42863 9.8789C1.78553 10.3934 1.5 10.9626 1.5 11.3024V20.7908H0.5V8.51172H1.5V9.36393C1.59671 9.27138 1.69835 9.1825 1.80393 9.09803C2.58046 8.4768 3.66522 8.01172 4.90698 8.01172C5.78395 8.01172 6.73842 8.15501 7.48665 8.65383C7.85139 8.89699 8.15144 9.21401 8.36805 9.6106C9.04458 8.72414 10.2922 8.01172 12.1628 8.01172C13.0398 8.01172 13.9942 8.15501 14.7425 8.65383C15.5265 9.17651 16.0116 10.0405 16.0116 11.3024V20.7908H15.0116V11.3024C15.0116 10.3318 14.6596 9.80042 14.1878 9.48588C13.6802 9.1475 12.9602 9.01172 12.1628 9.01172C9.59125 9.01172 8.75581 10.516 8.75581 11.3024V20.7908H7.75581V11.3024C7.75581 10.3318 7.40376 9.80042 6.93195 9.48588C6.42437 9.1475 5.70442 9.01172 4.90698 9.01172C3.91618 9.01172 3.04744 9.38384 2.42863 9.8789Z"/>
</svg>
