<svg xmlns="http://www.w3.org/2000/svg" width="24" height="24" viewBox="0 0 24 24"> <path d="M14.75,13.72a2.43,2.43,0,0,1-2.66,2.45,2.81,2.81,0,0,1-2.95-2.85l.91-.15c.15,1.41.83,2.12,2,2.12a1.56,1.56,0,0,0,1.73-1.57c0-1.09-.63-1.61-1.9-1.61h-.58v-.83h.58c1,0,1.69-.57,1.69-1.3A1.37,1.37,0,0,0,12.06,8.6a1.73,1.73,0,0,0-1.81,1.56L9.36,10a2.59,2.59,0,0,1,2.7-2.26A2.22,2.22,0,0,1,14.54,9.9a1.94,1.94,0,0,1-1.24,1.71v0A2.09,2.09,0,0,1,14.75,13.72ZM24,12A12,12,0,1,1,12,0,12,12,0,0,1,24,12Zm-1,0A11,11,0,1,0,12,23,11,11,0,0,0,23,12Z" fill-rule="evenodd"/></svg>