<svg height="24" width="24" xmlns="http://www.w3.org/2000/svg" viewBox="0 0 24 24">
  <path d="M19.99,11.65c0-.16-.02-.32-.03-.48-.01-.13-.03-.26-.05-.39-.03-.2-.07-.39-.11-.59-.13-.55-.31-1.08-.55-1.59-.84-1.78-2.3-3.19-4.11-3.97-.43-.18-.86-.33-1.31-.43-.15-.03-.3-.06-.45-.09-.09-.02-.19-.03-.29-.04-.1-.01-.2-.02-.3-.03-.08,0-.16-.02-.25-.02-.18,0-.36-.02-.51-.02-.26,0-.38,0-.58.02-.13,0-.25.02-.38.04-.12.01-.24.03-.36.05-.17.03-.34.06-.51.1-.52.12-1.03.29-1.52.51-1.26.58-2.3,1.42-3.12,2.53-.58.78-1,1.63-1.27,2.57-.07.25-.13.5-.18.76-.02.12-.04.24-.06.36-.01.1-.02.21-.03.31-.01.12-.02.24-.03.37,0,.03,0,.05,0,.08-.01.2-.01.39,0,.59,0,.17.01.35.03.52.01.1.02.2.03.3.02.16.05.31.08.47.07.35.16.7.28,1.04.35,1.02.89,1.93,1.61,2.74.88.98,1.95,1.71,3.19,2.17.34.13.69.23,1.04.31.13.03.26.05.4.08.1.02.2.03.3.04.11.01.21.03.32.03.09,0,.19.02.28.02.14,0,.28.01.42.01s.28,0,.42,0c.09,0,.17-.01.26-.02.07,0,.14-.01.21-.02.12-.01.25-.03.37-.05.16-.03.32-.06.49-.09.37-.08.73-.19,1.08-.32.95-.36,1.79-.87,2.54-1.55.69-.62,1.25-1.34,1.69-2.15.32-.59.56-1.21.72-1.86.04-.18.08-.36.11-.54.03-.14.05-.29.06-.43.01-.13.03-.25.04-.38.01-.15.02-.29.02-.44,0-.16,0-.33,0-.49ZM16.33,9.39c-.05.27-.11.55-.16.82-.04.2-.08.4-.12.6,0,0,0,.01,0,.02,0,.01-.01.02-.03.02-.03,0-.05,0-.08-.01-.1-.02-.19-.03-.29-.05-.47-.1-.9-.27-1.3-.54-.15-.1-.3-.22-.43-.35-.01-.01-.02-.02-.04-.03,0,0,0,0-.01,0,0,0,0,0,0,.01,0,.02,0,.03,0,.05,0,.09,0,.18,0,.27v3.32c0,.05,0,.11,0,.16-.01.34-.08.66-.19.97-.33.88-1.06,1.61-2.04,1.89-.14.04-.29.07-.44.09-.21.03-.42.03-.63.02-.28-.02-.56-.07-.83-.17-.95-.34-1.69-1.12-1.96-2.11-.05-.17-.08-.34-.09-.51-.02-.18-.02-.36,0-.54.02-.28.08-.56.18-.83.3-.84.98-1.54,1.86-1.86.18-.07.37-.12.57-.15.16-.03.31-.04.47-.04.17,0,.35,0,.52,0,.02,0,.03,0,.05,0,0,0,.02.01.02.02,0,.02,0,.04,0,.06v1.46s0,.05,0,.07c0,0-.01.02-.02.02-.02,0-.04,0-.06,0h-.49c-.07,0-.13,0-.2.01-.17.02-.33.07-.49.15-.33.17-.65.5-.76.99-.04.16-.04.32-.02.48.05.45.32.86.71,1.09.17.1.34.16.54.19.1.01.19.02.29.01.33-.02.62-.13.88-.35.25-.21.41-.48.49-.8.02-.09.03-.19.03-.29v-3.07h0v-3.08s0-.05,0-.08c0-.01.01-.02.02-.02.02,0,.04,0,.06,0h1.47s.03,0,.05,0c.02,0,.03,0,.03.02.02.03.03.06.05.09.09.16.18.32.28.47.14.2.3.39.48.57.21.2.43.38.69.51.21.11.42.19.65.23.09.02.18.03.26.05.01,0,.02,0,.03,0,.03,0,.03.02.03.04,0,.02,0,.05-.01.07Z"/>
</svg>
