<svg width="24" height="24" viewBox="0 0 24 24" fill="none" xmlns="http://www.w3.org/2000/svg">
<g id="TikTok-small">
<path id="Vector" d="M12.0326 4.00094C12.1819 3.99654 12.363 4.00844 12.5442 4.01824C12.6264 4.02264 12.7084 4.03184 12.7906 4.04024C12.8915 4.05074 12.9921 4.06094 13.0926 4.07414C13.1884 4.08664 13.2839 4.10124 13.3787 4.11844C13.5293 4.14554 13.6793 4.17564 13.8283 4.21054C14.2789 4.31514 14.7166 4.45874 15.1418 4.64054C16.9493 5.41374 18.4129 6.82784 19.2484 8.60794C19.4874 9.11704 19.6702 9.64594 19.7962 10.194C19.8408 10.3893 19.8784 10.5857 19.9092 10.7837C19.9289 10.9117 19.9461 11.0403 19.959 11.169C19.9749 11.3284 19.9874 11.4882 19.9935 11.6484C20 11.8109 20.0057 11.9734 20.001 12.1359C19.9966 12.2818 19.9918 12.4277 19.9813 12.5736C19.9722 12.7006 19.9607 12.8272 19.9458 12.9534C19.9285 13.0983 19.9072 13.2429 19.8818 13.3868C19.85 13.5679 19.8121 13.7473 19.7681 13.9257C19.6079 14.5764 19.3686 15.1963 19.051 15.7861C18.6123 16.6009 18.0489 17.3187 17.362 17.9389C16.6121 18.616 15.7647 19.1333 14.8195 19.4901C14.4668 19.6235 14.1059 19.7301 13.7375 19.8114C13.5764 19.8469 13.4146 19.8781 13.2521 19.9034C13.1288 19.9227 13.0053 19.9407 12.8807 19.9519C12.8103 19.9583 12.7402 19.9674 12.6698 19.9732C12.5828 19.9803 12.4958 19.9874 12.4087 19.9905C12.2676 19.9955 12.1261 19.9999 11.9849 19.9999C11.8457 19.9999 11.7069 19.9952 11.5681 19.9894C11.474 19.9854 11.3802 19.9745 11.2861 19.9681C11.1778 19.9607 11.0705 19.9475 10.9628 19.9339C10.8623 19.9214 10.7621 19.9062 10.6625 19.8892C10.5302 19.8665 10.3988 19.8405 10.2674 19.8117C9.9127 19.7338 9.565 19.6323 9.2251 19.5053C7.9853 19.0425 6.923 18.3187 6.0397 17.3339C5.3193 16.5309 4.7844 15.6181 4.433 14.5981C4.3155 14.2568 4.2224 13.9092 4.1526 13.555C4.1222 13.4 4.0961 13.2446 4.0744 13.0882C4.0606 12.988 4.0518 12.8868 4.0402 12.7862C4.0203 12.6129 4.0121 12.4385 4.0054 12.2645C3.9979 12.0692 3.9976 11.8735 4.0084 11.6778C4.0098 11.6521 4.0111 11.626 4.0121 11.6003C4.0162 11.4777 4.0257 11.3555 4.0385 11.2336C4.0497 11.1307 4.0589 11.0271 4.0731 10.9245C4.0897 10.8033 4.1086 10.6821 4.1303 10.5616C4.1767 10.3067 4.2352 10.0545 4.3063 9.80534C4.5724 8.87364 4.9929 8.01754 5.5715 7.24014C6.3958 6.13284 7.4362 5.29084 8.6912 4.71494C9.1783 4.49124 9.6845 4.32224 10.2068 4.20174C10.3744 4.16314 10.543 4.12994 10.7126 4.10284C10.8335 4.08364 10.955 4.06734 11.0766 4.05314C11.2028 4.03824 11.3298 4.02744 11.4564 4.01794C11.6575 4.00304 11.7763 4.00094 12.0326 4.00094ZM12.2283 10.523C12.2283 11.5102 12.2283 12.4978 12.2283 13.485C12.2283 13.5202 12.2283 13.5557 12.2283 13.5909C12.2283 13.6881 12.2154 13.7839 12.1941 13.878C12.1206 14.1986 11.9592 14.4667 11.7086 14.6797C11.4557 14.8943 11.1615 15.0067 10.8311 15.0274C10.7343 15.0335 10.6378 15.0274 10.542 15.0128C10.3514 14.984 10.1727 14.9207 10.0064 14.8222C9.6164 14.5903 9.349 14.1841 9.2975 13.7294C9.2792 13.5662 9.2857 13.4044 9.3209 13.2446C9.4292 12.7523 9.7501 12.424 10.0765 12.2543C10.2305 12.1745 10.393 12.1227 10.5654 12.1C10.631 12.0912 10.6967 12.0881 10.7627 12.0881C10.9252 12.0881 11.0881 12.0881 11.2506 12.0881C11.2716 12.0881 11.2929 12.0871 11.3139 12.0861C11.3227 12.0858 11.3322 12.0766 11.3328 12.0681C11.3339 12.0448 11.3352 12.0211 11.3352 11.9977C11.3352 11.689 11.3352 11.3802 11.3352 11.0718C11.3352 10.8951 11.3352 10.7184 11.3352 10.5416C11.3352 10.5203 11.3342 10.4993 11.3332 10.478C11.3332 10.4706 11.322 10.4597 11.3146 10.459C11.2983 10.4577 11.2817 10.4563 11.2655 10.4563C11.0911 10.4563 10.9168 10.4557 10.7424 10.4563C10.5843 10.457 10.4269 10.4682 10.2708 10.4936C10.0775 10.5247 9.8886 10.5731 9.7041 10.6398C8.8175 10.9597 8.1427 11.6632 7.8408 12.5022C7.7443 12.77 7.6847 13.0452 7.6644 13.3286C7.6515 13.5073 7.6535 13.6864 7.6715 13.8651C7.6884 14.0368 7.7189 14.2057 7.7639 14.3719C8.0344 15.3656 8.7751 16.1476 9.7237 16.4838C9.9915 16.5786 10.2681 16.6361 10.5515 16.6534C10.761 16.6663 10.9706 16.6612 11.1792 16.6314C11.3288 16.6101 11.4761 16.5806 11.621 16.5386C12.601 16.2539 13.337 15.5244 13.6648 14.6441C13.7815 14.3303 13.8472 14.0063 13.8574 13.6712C13.8591 13.617 13.8594 13.5628 13.8594 13.5087C13.8594 12.4036 13.8594 11.2983 13.8594 10.1933C13.8594 10.1039 13.8594 10.0142 13.8601 9.92484C13.8601 9.90824 13.8608 9.89204 13.8621 9.87544C13.8621 9.87134 13.8658 9.86624 13.8692 9.86424C13.8723 9.86254 13.8787 9.86294 13.8814 9.86524C13.8939 9.87614 13.9058 9.88724 13.9176 9.89914C14.0497 10.0311 14.1939 10.1486 14.3486 10.2529C14.7447 10.5196 15.1797 10.6916 15.6459 10.7891C15.7427 10.8094 15.8402 10.8257 15.9374 10.844C15.9628 10.8487 15.9885 10.8528 16.0139 10.8568C16.0258 10.8589 16.0369 10.8511 16.04 10.8389C16.0417 10.8321 16.0437 10.8253 16.0451 10.8182C16.0843 10.6171 16.1236 10.416 16.1632 10.2153C16.2174 9.94044 16.2722 9.66554 16.3271 9.39094C16.3318 9.36794 16.3362 9.34494 16.3406 9.32154C16.345 9.29784 16.3382 9.28804 16.3129 9.28264C16.3013 9.28024 16.2898 9.27854 16.278 9.27654C16.19 9.26134 16.1013 9.24744 16.0136 9.23014C15.7857 9.18514 15.5691 9.10794 15.3636 8.99994C15.107 8.86524 14.8788 8.69224 14.6723 8.49014C14.4949 8.31644 14.3378 8.12584 14.1966 7.92164C14.092 7.77034 13.9979 7.61294 13.9116 7.45044C13.896 7.42134 13.8804 7.39224 13.8642 7.36374C13.857 7.35094 13.8466 7.34214 13.8303 7.34244C13.8137 7.34274 13.7975 7.34214 13.7809 7.34214C13.2907 7.34214 12.8004 7.34214 12.3106 7.34214C12.2916 7.34214 12.273 7.34244 12.254 7.34344C12.2412 7.34414 12.231 7.35324 12.2307 7.36514C12.2297 7.39084 12.229 7.41694 12.229 7.44264C12.229 8.47014 12.229 9.49764 12.229 10.5247L12.2283 10.523Z" fill="#050505"/>
</g>
</svg>
