<svg xmlns="http://www.w3.org/2000/svg" width="24" height="24" viewBox="0 0 24 24">
<path d="M10.51,19v5h3V19A4.17,4.17,0,0,0,15,18a5.37,5.37,0,0,0,1.73.29A5.31,5.31,0,0,0,22,13a5.38,5.38,0,0,0-1.36-3.5A4,4,0,0,0,21,7.73a3.83,3.83,0,0,0-3.32-3.82,6.18,6.18,0,0,0-11.46,0A3.83,3.83,0,0,0,3,7.69a4,4,0,0,0,.4,1.72,5.3,5.3,0,0,0,3.9,8.84A5.43,5.43,0,0,0,9,18,4.16,4.16,0,0,0,10.51,19Zm2,4.05v-4.8l.66-.24a3,3,0,0,0,1.16-.76l.45-.45.6.21a4.15,4.15,0,0,0,1.39.24,4.3,4.3,0,0,0,3.15-7.17l-.45-.5.3-.61a2.86,2.86,0,0,0-1.28-3.84h0a3.06,3.06,0,0,0-.89-.27L17,4.78l-.22-.53a5.18,5.18,0,0,0-9.62,0L7,4.78l-.57.08A2.86,2.86,0,0,0,4,8.06,2.79,2.79,0,0,0,4.25,9l.3.61-.45.5a4.3,4.3,0,0,0,3.15,7.17A4.1,4.1,0,0,0,8.64,17l.6-.21.45.45a3,3,0,0,0,1.16.76l.66.24V23Z" fill-rule="evenodd" />
</svg>
