<svg xmlns="http://www.w3.org/2000/svg" width="25" height="24" viewBox="0 0 25 24">
  <path d="M10,7a2.5,2.5,0,0,1-4.9,0H.88V6H5.05A2.5,2.5,0,0,1,10,6H24.88V7ZM9,6.5A1.5,1.5,0,1,1,7.5,5,1.5,1.5,0,0,1,9,6.5ZM7.5,16a2.5,2.5,0,0,0-2.45,2H.88v1H5.05A2.5,2.5,0,0,0,10,19H24.88V18H10A2.5,2.5,0,0,0,7.5,16Zm0,4A1.5,1.5,0,1,0,6,18.5,1.5,1.5,0,0,0,7.5,20Zm8.55-7H.88V12H16.05A2.5,2.5,0,0,1,21,12h3.93v1H21a2.5,2.5,0,0,1-4.9,0ZM20,12.5A1.5,1.5,0,1,1,18.5,11,1.5,1.5,0,0,1,20,12.5Z" fill-rule="evenodd"/></svg>
