<svg height="46" viewBox="0 0 46 46" width="46" xmlns="http://www.w3.org/2000/svg">
  <title>twitter</title>
  <path d="M32,16.78a8,8,0,0,1-2.24.59,3.86,3.86,0,0,0,1.72-2.09A8.12,8.12,0,0,1,29,16.2,3.93,3.93,0,0,0,26.15,15a3.82,3.82,0,0,0-3.79,4.65,11.22,11.22,0,0,1-8-4,3.73,3.73,0,0,0,1.21,5.06,4.05,4.05,0,0,1-1.77-.47A3.83,3.83,0,0,0,16.89,24a4.15,4.15,0,0,1-1.76.06,3.89,3.89,0,0,0,3.64,2.63A8,8,0,0,1,13,28.3,11.32,11.32,0,0,0,19,30,10.84,10.84,0,0,0,30.05,18.74,7.89,7.89,0,0,0,32,16.78Z" />
</svg>
