<svg width="24" height="24" viewBox="0 0 24 24" xmlns="http://www.w3.org/2000/svg">
<path fill-rule="evenodd" clip-rule="evenodd" d="M17.1683 0C15.5123 0 14.1683 1.344 14.1683 2.999C14.1683 4.654 15.5123 5.998 17.1683 5.998C18.8233 5.998 20.1683 4.654 20.1683 2.999C20.1683 1.344 18.8233 0 17.1683 0ZM17.1683 1C18.2713 1 19.1683 1.896 19.1683 2.999C19.1683 4.102 18.2713 4.999 17.1683 4.999C16.0653 4.999 15.1683 4.102 15.1683 2.999C15.1683 1.896 16.0653 1 17.1683 1ZM7.49931 0C5.84331 0 4.49931 1.344 4.49931 2.999C4.49931 4.654 5.84331 5.998 7.49931 5.998C9.15431 5.998 10.4993 4.654 10.4993 2.999C10.4993 1.344 9.15431 0 7.49931 0ZM7.49931 1C8.60231 1 9.49931 1.896 9.49931 2.999C9.49931 4.102 8.60231 4.999 7.49931 4.999C6.39631 4.999 5.49931 4.102 5.49931 2.999C5.49931 1.896 6.39631 1 7.49931 1ZM17.1473 15.828C17.8413 15.828 18.3783 16.352 18.4243 17.073C18.4743 17.814 18.5963 19.274 18.7043 20.562L18.8603 22.458C18.8803 22.709 19.0243 23 19.3683 23C19.7723 23 19.8233 22.575 19.8283 22.444L20.3003 10.997C20.3223 10.485 21.0013 10.342 21.2373 10.775L22.8823 13.752C23.0003 13.967 23.3333 13.877 23.3333 13.635L21.7333 7.96C21.6403 7.625 21.3313 7.393 20.9843 7.393H3.68131C3.33531 7.393 3.02631 7.625 2.93231 7.959L1.34231 13.569C1.32031 13.971 1.70631 13.895 1.78431 13.752L3.42931 10.775C3.67331 10.336 4.34531 10.492 4.36631 10.997L4.83731 22.445C4.84831 22.701 4.98331 23 5.32731 23C5.65631 23 5.82431 22.729 5.84531 22.459L6.00531 20.519C6.11231 19.242 6.23231 17.807 6.28231 17.071C6.32931 16.352 6.86631 15.828 7.55931 15.828C8.14331 15.828 8.77731 16.293 8.82931 17.072C8.87831 17.806 8.99831 19.241 9.10531 20.518L9.26531 22.458C9.28431 22.709 9.42631 23 9.76431 23C10.1463 23 10.2033 22.611 10.2103 22.444C10.3323 19.488 10.8393 10.154 10.8453 10.06C10.8593 9.794 11.0783 9.587 11.3443 9.587H13.3073C13.5733 9.587 13.7923 9.795 13.8063 10.061C13.8123 10.155 14.3003 19.488 14.4233 22.445C14.4353 22.721 14.5973 23 14.9323 23C15.2763 23 15.4223 22.709 15.4403 22.459L15.6053 20.477C15.7103 19.211 15.8283 17.798 15.8773 17.071C15.9293 16.293 16.5643 15.828 17.1473 15.828ZM19.3693 24C18.5623 24 17.9293 23.384 17.8633 22.535C17.8283 22.08 17.7713 21.392 17.7083 20.646C17.6003 19.352 17.4773 17.885 17.4263 17.139C17.4113 16.908 17.2723 16.828 17.1473 16.828C17.0683 16.828 16.8913 16.906 16.8753 17.138C16.8263 17.869 16.7073 19.288 16.6013 20.56C16.5353 21.339 16.4753 22.062 16.4383 22.536C16.3733 23.384 15.7403 24 14.9343 24C14.1083 24 13.4603 23.35 13.4233 22.487C13.3173 19.92 12.9343 12.533 12.8323 10.587H11.8173C11.7123 12.531 11.3153 19.92 11.2093 22.486C11.1713 23.378 10.5783 24 9.76531 24C8.96231 24 8.33331 23.384 8.26831 22.535L8.10831 20.601C8.00131 19.318 7.88031 17.877 7.83131 17.139C7.81531 16.906 7.63731 16.828 7.55931 16.828C7.43431 16.828 7.29431 16.909 7.28031 17.137C7.23031 17.877 7.10931 19.319 7.00231 20.602L6.84231 22.536C6.77731 23.384 6.14031 24 5.32931 24C4.50231 24 3.87631 23.363 3.83831 22.487L3.44031 12.822L2.66031 14.235C2.33731 14.819 1.57231 15.016 1.08731 14.773C0.627313 14.578 0.333313 14.136 0.333313 13.635C0.333313 13.52 0.349313 13.406 0.380313 13.296L1.97031 7.687C2.18531 6.925 2.88931 6.393 3.68131 6.393H20.9843C21.7773 6.393 22.4813 6.926 22.6963 7.687L24.2863 13.297C24.3173 13.406 24.3333 13.52 24.3333 13.635C24.3333 14.138 24.0363 14.582 23.5743 14.775L23.5373 14.792C22.9713 15.01 22.2993 14.764 22.0073 14.234L21.2263 12.822L20.8283 22.486C20.7903 23.378 20.1903 24 19.3693 24Z"/>
</svg>
