<svg xmlns="http://www.w3.org/2000/svg" width="24" height="24" viewBox="0 0 24 24">
  <path d="M24,22H0V2H24ZM23,3H1V21H23ZM19,16v1H15V16Zm-6,1H2v-.91C2,15,2,14,3.71,13.55c.79-.18,1.75-.4,1.89-.71.05-.1,0-.3-.09-.4C4.4,10.4,4.2,8.6,4.94,7.36A2.88,2.88,0,0,1,7.5,6a2.9,2.9,0,0,1,2.55,1.34c.73,1.22.54,3-.55,5.09-.06.11-.15.3-.1.41.14.31,1.12.53,1.83.7C13,14,13,15,13,16.1ZM3,16h9c0-1-.06-1.27-.94-1.47-1.17-.27-2.22-.52-2.57-1.27A1.44,1.44,0,0,1,8.61,12c.92-1.74,1.13-3.2.58-4.12A1.87,1.87,0,0,0,7.5,7a1.88,1.88,0,0,0-1.7.87c-.54.91-.33,2.4.58,4.09a1.4,1.4,0,0,1,.13,1.3c-.34.75-1.38,1-2.49,1.25C3.06,14.73,3,15,3,16Zm18-3v1H15V13Zm0-3v1H15V10Zm0-3V8H15V7Z" fill-rule="evenodd"/></svg>
