<svg height="24" viewBox="0 0 24 24" width="24" xmlns="http://www.w3.org/2000/svg">
  <title>web</title>
  <path d="M12.1,0A12,12,0,1,1,.1,12a12,12,0,0,1,12-12Zm3.7,16H8.4c.6,4.3,2.2,7,3.7,7S15.2,20.3,15.8,16Zm6.6,0H16.9a13.46,13.46,0,0,1-2.5,6.8A11.43,11.43,0,0,0,22.4,16Zm-15,0H1.9a11.06,11.06,0,0,0,8,6.8A13.46,13.46,0,0,1,7.4,16ZM7.3,9H1.5a11.83,11.83,0,0,0,0,6H7.2A40.69,40.69,0,0,1,7.3,9ZM16,9H8.3a30,30,0,0,0,0,6H16A30,30,0,0,0,16,9Zm6.7,0H17a27.39,27.39,0,0,1,0,6h5.7A11.83,11.83,0,0,0,22.7,9ZM9.9,1.2A11.06,11.06,0,0,0,1.9,8H7.4A13.46,13.46,0,0,1,9.9,1.2ZM15.8,8c-.6-4.3-2.2-7-3.7-7S9,3.7,8.4,8ZM14.4,1.2A14.51,14.51,0,0,1,16.8,8h5.5A11.08,11.08,0,0,0,14.4,1.2Z" fill-rule="evenodd"/>
</svg>
