<svg xmlns="http://www.w3.org/2000/svg" width="24" height="24" viewBox="0 0 24 24"><path d="M16.06,19.53,9.65,14.16l1.08,2a2,2,0,0,1,.23.79l.38,5.79A1.22,1.22,0,0,1,10.09,24a1.25,1.25,0,0,1-1.23-1l-1.16-5c-.38-.43-1.47-1.59-2.13-2.29C4.85,17.48,3,21.82,2.45,23.23A1.22,1.22,0,0,1,1.28,24,1.27,1.27,0,0,1,0,22.73c0-.09,0-.11.76-3.86.52-2.56,1.17-5.76,1.47-7.39a2.53,2.53,0,0,1,.59-1.19l.94-1.06L.39,6.41A.5.5,0,0,1,1,5.64l1,.8c.33-.63.86-1.65,1.16-2.28a1.28,1.28,0,0,1,1.05-.7l5.25,0A2,2,0,0,1,11,4c.29.29,2.05,2.17,2.41,2.54A1.76,1.76,0,0,1,14,7.83v8.64l2.77,2.32,2.72-3a1.12,1.12,0,0,1,.85-.38,1.15,1.15,0,0,1,1.09.78C22.33,19,24,24,24,24H12l4.06-4.47ZM4.53,9.87,3.57,11a1.48,1.48,0,0,0-.35.72c-.31,1.63-1,4.84-1.48,7.39C1.37,20.89,1,22.62,1,22.78s.43.32.53.08c.73-1.79,3.41-8.18,3.41-8.18a.49.49,0,0,1,.83-.15L8.4,17.31a1.29,1.29,0,0,1,.28.53l1.16,5c.06.29.52.26.5,0L10,17a1,1,0,0,0-.11-.38L7.91,13.07a.51.51,0,0,1,0-.4L4.53,9.87ZM22.61,23c-.56-1.68-1.79-5.4-2.16-6.49a.15.15,0,0,0-.25-.05c-1,1.09-4.26,4.69-5.94,6.54ZM13,15.64V7.83a.79.79,0,0,0-.23-.55c-.71-.72-1.81-1.93-2.42-2.55-.18-.18-.37-.23-.9-.23l-5.2,0A.28.28,0,0,0,4,4.6c-.34.69-.94,1.85-1.25,2.45l.07,0L4.55,5.21A.53.53,0,0,1,5,5.05l2.61.17a.5.5,0,0,1,.34.83L5.19,9.12,8.5,11.89l2.43-2.82a.5.5,0,0,1,.87.23L13,15.63Zm-3.7-3.11.93.79,1.53,1.28L11,10.52ZM3.59,7.78l.83.7L6.49,6.15,5.14,6.06,3.59,7.78ZM14.43,5.69a2.85,2.85,0,1,1,2.85-2.85A2.85,2.85,0,0,1,14.43,5.69Zm0-4.69a1.85,1.85,0,1,0,1.85,1.84A1.84,1.84,0,0,0,14.43,1Z" fill-rule="evenodd"/></svg>