<svg width="24" height="24" viewBox="0 0 24 24" fill="none" xmlns="http://www.w3.org/2000/svg">
<g id="X-small">
<g id="Vector">
<path d="M8.61981 7.95749H9.82601L15.3909 16.0426H14.1846L8.61981 7.95749Z" fill="#050505"/>
<path fill-rule="evenodd" clip-rule="evenodd" d="M20 12C20 16.4183 16.4183 20 12 20C7.5817 20 4 16.4183 4 12C4 7.5817 7.5817 4 12 4C16.4183 4 20 7.5817 20 12ZM12.5016 10.7776L10.1439 7.35229H7.46851L11.016 12.5068L7.45801 16.6476H8.22991L11.3601 13.0064L13.8666 16.6479H16.5421L12.8458 11.2777L16.2199 7.35229H15.448L14.7872 8.11729L12.5016 10.7776Z" fill="#050505"/>
</g>
</g>
</svg>
