<svg width="46" height="46" viewBox="0 0 46 46" fill="none" xmlns="http://www.w3.org/2000/svg">
<path d="M19.6198 18.9575H20.826L26.3909 27.0426H25.1846L19.6198 18.9575Z" fill="#050505"/>
<path fill-rule="evenodd" clip-rule="evenodd" d="M31 23C31 27.4183 27.4183 31 23 31C18.5817 31 15 27.4183 15 23C15 18.5817 18.5817 15 23 15C27.4183 15 31 18.5817 31 23ZM23.5016 21.7776L21.1439 18.3523H18.4685L22.016 23.5068L18.458 27.6476H19.2299L22.3601 24.0064L24.8666 27.6479H27.5421L23.8458 22.2777L27.2199 18.3523H26.448L25.7872 19.1173L23.5016 21.7776Z" fill="#050505"/>
</svg>
