<svg width="24" height="24" viewBox="0 0 24 24" fill="none" xmlns="http://www.w3.org/2000/svg">
<g id="Youtube-small">
<path id="Vector" d="M20.6292 7.8776C20.4217 7.1435 19.8138 6.5647 19.0428 6.3671C17.6342 6 12 6 12 6C12 6 6.3657 6 4.9572 6.3529C4.201 6.5506 3.5783 7.1435 3.3707 7.8776C3 9.2188 3 12 3 12C3 12 3 14.7953 3.3707 16.1224C3.5783 16.8565 4.1862 17.4353 4.9572 17.6329C6.3805 18 12 18 12 18C12 18 17.6342 18 19.0428 17.6471C19.8138 17.4494 20.4217 16.8706 20.6292 16.1365C20.9999 14.7953 20.9999 12.0141 20.9999 12.0141C20.9999 12.0141 21.0147 9.2188 20.6292 7.8776ZM10.2059 14.5694V9.4306L14.8912 12L10.2059 14.5694Z" fill="#050505"/>
</g>
</svg>
