<svg xmlns="http://www.w3.org/2000/svg" width="24" height="24" viewBox="0 0 24 24"><path d="M8.33.5a6.75,6.75,0,0,0-5.7,3.15A14.79,14.79,0,0,0,.5,12a14.79,14.79,0,0,0,2.13,8.35,6.75,6.75,0,0,0,5.7,3.15,6.52,6.52,0,0,0,4.46-1.71L12.12,21A5.47,5.47,0,0,1,8.33,22.5a5.75,5.75,0,0,1-4.87-2.71A13.85,13.85,0,0,1,1.5,12a13.85,13.85,0,0,1,2-7.79,5.74,5.74,0,0,1,9.75,0,13.85,13.85,0,0,1,2,7.79,20.06,20.06,0,0,1-.12,2.24l1,.11A22.05,22.05,0,0,0,16.17,12,14.87,14.87,0,0,0,14,3.65,6.75,6.75,0,0,0,8.33.5ZM15.4,15.75a1.65,1.65,0,1,0,1.65,1.65A1.65,1.65,0,0,0,15.4,15.75Zm-.8,1.65a.8.8,0,1,1,.8.8A.8.8,0,0,1,14.6,17.4ZM21,16.57,20.37,16,14,22.43l.65.56ZM19.6,20a1.65,1.65,0,1,0,1.65,1.65A1.65,1.65,0,0,0,19.6,20Zm-.8,1.65a.8.8,0,1,1,.8.8A.8.8,0,0,1,18.8,21.6Z"/></svg>