<svg xmlns="http://www.w3.org/2000/svg" width="24" height="24" viewBox="0 0 24 24"><path d="M12.23,18.06a2.49,2.49,0,0,0,2.68-2.43l1.05.14A3.46,3.46,0,0,1,12.23,19a3.81,3.81,0,0,1-3.91-3.12H7V15H8.18c0-.16,0-.32,0-.48s0-.27,0-.41H7v-.9H8.3A3.88,3.88,0,0,1,12.23,10a3.5,3.5,0,0,1,3.69,3l-1,.16a2.54,2.54,0,0,0-2.7-2.23,2.82,2.82,0,0,0-2.88,2.25H13v.9H9.19c0,.14,0,.27,0,.41a3.87,3.87,0,0,0,0,.48h2.87v.9H9.36A2.82,2.82,0,0,0,12.23,18.06ZM15.5,5a3.93,3.93,0,0,1-.29,1.5h2.65l5.33,16H.85l4.27-16H7.79A3.93,3.93,0,0,1,7.5,5a4,4,0,0,1,8,0ZM8.9,6.5h5.2a3,3,0,1,0-5.2,0Zm-3,1-3.73,14H21.81l-4.67-14Z"/></svg>